# xmcd CD database file
#
# Track frame offsets:
#	150
#	31228
#	61150
#	74419
#	86788
#	108351
#	129305
#	151855
#	201197
#	223655
#	249793
#	279854
#	308608
#
# Disc length: 4411 seconds
#
# Revision: 0
# Processed by: cddbd v1.5.2PL0 Copyright (c) Steve Scherf et al.
# Submitted via: CDex 1.70beta2
#
DISCID=a811390d
DTITLE=Dolphy, Eric - Out There - Sreamin' The Blues
DYEAR=1960
DGENRE=Jazz
TTITLE0=Out There
TTITLE1=Serene
TTITLE2=The Baron
TTITLE3=Eclipse
TTITLE4=17 West
TTITLE5=Sketch Of Melba
TTITLE6=Feathers
TTITLE7=Screamin' The Blues
TTITLE8=March On, March On
TTITLE9=The Drive
TTITLE10=The Meetin'
TTITLE11=Three Seconds
TTITLE12=Alto-it Is
EXTD=YEAR: 1960
EXTT0=
EXTT1=
EXTT2=
EXTT3=
EXTT4=
EXTT5=
EXTT6=
EXTT7=
EXTT8=
EXTT9=
EXTT10=
EXTT11=
EXTT12=
PLAYORDER=
